<svg version="1.1" xmlns="http://www.w3.org/2000/svg" xmlns:xlink="http://www.w3.org/1999/xlink" width="484" height="582"><defs/><g><text fill="#eeeeee" stroke="none" font-family="Arial" font-size="24px" font-style="normal" font-weight="normal" text-decoration="none" x="0" y="0">UNREGISTERED</text><text fill="#eeeeee" stroke="none" font-family="Arial" font-size="24px" font-style="normal" font-weight="normal" text-decoration="none" x="0" y="30">UNREGISTERED</text><text fill="#eeeeee" stroke="none" font-family="Arial" font-size="24px" font-style="normal" font-weight="normal" text-decoration="none" x="0" y="60">UNREGISTERED</text><text fill="#eeeeee" stroke="none" font-family="Arial" font-size="24px" font-style="normal" font-weight="normal" text-decoration="none" x="0" y="90">UNREGISTERED</text><text fill="#eeeeee" stroke="none" font-family="Arial" font-size="24px" font-style="normal" font-weight="normal" text-decoration="none" x="0" y="120">UNREGISTERED</text><text fill="#eeeeee" stroke="none" font-family="Arial" font-size="24px" font-style="normal" font-weight="normal" text-decoration="none" x="0" y="150">UNREGISTERED</text><text fill="#eeeeee" stroke="none" font-family="Arial" font-size="24px" font-style="normal" font-weight="normal" text-decoration="none" x="0" y="180">UNREGISTERED</text><text fill="#eeeeee" stroke="none" font-family="Arial" font-size="24px" font-style="normal" font-weight="normal" text-decoration="none" x="0" y="210">UNREGISTERED</text><text fill="#eeeeee" stroke="none" font-family="Arial" font-size="24px" font-style="normal" font-weight="normal" text-decoration="none" x="0" y="240">UNREGISTERED</text><text fill="#eeeeee" stroke="none" font-family="Arial" font-size="24px" font-style="normal" font-weight="normal" text-decoration="none" x="0" y="270">UNREGISTERED</text><text fill="#eeeeee" stroke="none" font-family="Arial" font-size="24px" font-style="normal" font-weight="normal" text-decoration="none" x="0" y="300">UNREGISTERED</text><text fill="#eeeeee" stroke="none" font-family="Arial" font-size="24px" font-style="normal" font-weight="normal" text-decoration="none" x="0" y="330">UNREGISTERED</text><text fill="#eeeeee" stroke="none" font-family="Arial" font-size="24px" font-style="normal" font-weight="normal" text-decoration="none" x="0" y="360">UNREGISTERED</text><text fill="#eeeeee" stroke="none" font-family="Arial" font-size="24px" font-style="normal" font-weight="normal" text-decoration="none" x="0" y="390">UNREGISTERED</text><text fill="#eeeeee" stroke="none" font-family="Arial" font-size="24px" font-style="normal" font-weight="normal" text-decoration="none" x="0" y="420">UNREGISTERED</text><text fill="#eeeeee" stroke="none" font-family="Arial" font-size="24px" font-style="normal" font-weight="normal" text-decoration="none" x="0" y="450">UNREGISTERED</text><text fill="#eeeeee" stroke="none" font-family="Arial" font-size="24px" font-style="normal" font-weight="normal" text-decoration="none" x="0" y="480">UNREGISTERED</text><text fill="#eeeeee" stroke="none" font-family="Arial" font-size="24px" font-style="normal" font-weight="normal" text-decoration="none" x="0" y="510">UNREGISTERED</text><text fill="#eeeeee" stroke="none" font-family="Arial" font-size="24px" font-style="normal" font-weight="normal" text-decoration="none" x="0" y="540">UNREGISTERED</text><text fill="#eeeeee" stroke="none" font-family="Arial" font-size="24px" font-style="normal" font-weight="normal" text-decoration="none" x="0" y="570">UNREGISTERED</text><text fill="#eeeeee" stroke="none" font-family="Arial" font-size="24px" font-style="normal" font-weight="normal" text-decoration="none" x="200" y="0">UNREGISTERED</text><text fill="#eeeeee" stroke="none" font-family="Arial" font-size="24px" font-style="normal" font-weight="normal" text-decoration="none" x="200" y="30">UNREGISTERED</text><text fill="#eeeeee" stroke="none" font-family="Arial" font-size="24px" font-style="normal" font-weight="normal" text-decoration="none" x="200" y="60">UNREGISTERED</text><text fill="#eeeeee" stroke="none" font-family="Arial" font-size="24px" font-style="normal" font-weight="normal" text-decoration="none" x="200" y="90">UNREGISTERED</text><text fill="#eeeeee" stroke="none" font-family="Arial" font-size="24px" font-style="normal" font-weight="normal" text-decoration="none" x="200" y="120">UNREGISTERED</text><text fill="#eeeeee" stroke="none" font-family="Arial" font-size="24px" font-style="normal" font-weight="normal" text-decoration="none" x="200" y="150">UNREGISTERED</text><text fill="#eeeeee" stroke="none" font-family="Arial" font-size="24px" font-style="normal" font-weight="normal" text-decoration="none" x="200" y="180">UNREGISTERED</text><text fill="#eeeeee" stroke="none" font-family="Arial" font-size="24px" font-style="normal" font-weight="normal" text-decoration="none" x="200" y="210">UNREGISTERED</text><text fill="#eeeeee" stroke="none" font-family="Arial" font-size="24px" font-style="normal" font-weight="normal" text-decoration="none" x="200" y="240">UNREGISTERED</text><text fill="#eeeeee" stroke="none" font-family="Arial" font-size="24px" font-style="normal" font-weight="normal" text-decoration="none" x="200" y="270">UNREGISTERED</text><text fill="#eeeeee" stroke="none" font-family="Arial" font-size="24px" font-style="normal" font-weight="normal" text-decoration="none" x="200" y="300">UNREGISTERED</text><text fill="#eeeeee" stroke="none" font-family="Arial" font-size="24px" font-style="normal" font-weight="normal" text-decoration="none" x="200" y="330">UNREGISTERED</text><text fill="#eeeeee" stroke="none" font-family="Arial" font-size="24px" font-style="normal" font-weight="normal" text-decoration="none" x="200" y="360">UNREGISTERED</text><text fill="#eeeeee" stroke="none" font-family="Arial" font-size="24px" font-style="normal" font-weight="normal" text-decoration="none" x="200" y="390">UNREGISTERED</text><text fill="#eeeeee" stroke="none" font-family="Arial" font-size="24px" font-style="normal" font-weight="normal" text-decoration="none" x="200" y="420">UNREGISTERED</text><text fill="#eeeeee" stroke="none" font-family="Arial" font-size="24px" font-style="normal" font-weight="normal" text-decoration="none" x="200" y="450">UNREGISTERED</text><text fill="#eeeeee" stroke="none" font-family="Arial" font-size="24px" font-style="normal" font-weight="normal" text-decoration="none" x="200" y="480">UNREGISTERED</text><text fill="#eeeeee" stroke="none" font-family="Arial" font-size="24px" font-style="normal" font-weight="normal" text-decoration="none" x="200" y="510">UNREGISTERED</text><text fill="#eeeeee" stroke="none" font-family="Arial" font-size="24px" font-style="normal" font-weight="normal" text-decoration="none" x="200" y="540">UNREGISTERED</text><text fill="#eeeeee" stroke="none" font-family="Arial" font-size="24px" font-style="normal" font-weight="normal" text-decoration="none" x="200" y="570">UNREGISTERED</text><text fill="#eeeeee" stroke="none" font-family="Arial" font-size="24px" font-style="normal" font-weight="normal" text-decoration="none" x="400" y="0">UNREGISTERED</text><text fill="#eeeeee" stroke="none" font-family="Arial" font-size="24px" font-style="normal" font-weight="normal" text-decoration="none" x="400" y="30">UNREGISTERED</text><text fill="#eeeeee" stroke="none" font-family="Arial" font-size="24px" font-style="normal" font-weight="normal" text-decoration="none" x="400" y="60">UNREGISTERED</text><text fill="#eeeeee" stroke="none" font-family="Arial" font-size="24px" font-style="normal" font-weight="normal" text-decoration="none" x="400" y="90">UNREGISTERED</text><text fill="#eeeeee" stroke="none" font-family="Arial" font-size="24px" font-style="normal" font-weight="normal" text-decoration="none" x="400" y="120">UNREGISTERED</text><text fill="#eeeeee" stroke="none" font-family="Arial" font-size="24px" font-style="normal" font-weight="normal" text-decoration="none" x="400" y="150">UNREGISTERED</text><text fill="#eeeeee" stroke="none" font-family="Arial" font-size="24px" font-style="normal" font-weight="normal" text-decoration="none" x="400" y="180">UNREGISTERED</text><text fill="#eeeeee" stroke="none" font-family="Arial" font-size="24px" font-style="normal" font-weight="normal" text-decoration="none" x="400" y="210">UNREGISTERED</text><text fill="#eeeeee" stroke="none" font-family="Arial" font-size="24px" font-style="normal" font-weight="normal" text-decoration="none" x="400" y="240">UNREGISTERED</text><text fill="#eeeeee" stroke="none" font-family="Arial" font-size="24px" font-style="normal" font-weight="normal" text-decoration="none" x="400" y="270">UNREGISTERED</text><text fill="#eeeeee" stroke="none" font-family="Arial" font-size="24px" font-style="normal" font-weight="normal" text-decoration="none" x="400" y="300">UNREGISTERED</text><text fill="#eeeeee" stroke="none" font-family="Arial" font-size="24px" font-style="normal" font-weight="normal" text-decoration="none" x="400" y="330">UNREGISTERED</text><text fill="#eeeeee" stroke="none" font-family="Arial" font-size="24px" font-style="normal" font-weight="normal" text-decoration="none" x="400" y="360">UNREGISTERED</text><text fill="#eeeeee" stroke="none" font-family="Arial" font-size="24px" font-style="normal" font-weight="normal" text-decoration="none" x="400" y="390">UNREGISTERED</text><text fill="#eeeeee" stroke="none" font-family="Arial" font-size="24px" font-style="normal" font-weight="normal" text-decoration="none" x="400" y="420">UNREGISTERED</text><text fill="#eeeeee" stroke="none" font-family="Arial" font-size="24px" font-style="normal" font-weight="normal" text-decoration="none" x="400" y="450">UNREGISTERED</text><text fill="#eeeeee" stroke="none" font-family="Arial" font-size="24px" font-style="normal" font-weight="normal" text-decoration="none" x="400" y="480">UNREGISTERED</text><text fill="#eeeeee" stroke="none" font-family="Arial" font-size="24px" font-style="normal" font-weight="normal" text-decoration="none" x="400" y="510">UNREGISTERED</text><text fill="#eeeeee" stroke="none" font-family="Arial" font-size="24px" font-style="normal" font-weight="normal" text-decoration="none" x="400" y="540">UNREGISTERED</text><text fill="#eeeeee" stroke="none" font-family="Arial" font-size="24px" font-style="normal" font-weight="normal" text-decoration="none" x="400" y="570">UNREGISTERED</text><g transform="translate(-54,-46) scale(1,1)"><rect fill="#C0C0C0" stroke="none" x="71" y="327" width="200.419921875" height="120" opacity="0.2"/></g><g transform="translate(-54,-46) scale(1,1)"><rect fill="#ffffff" stroke="none" x="64" y="320" width="200.419921875" height="120"/></g><g transform="translate(-54,-46) scale(1,1)"><path fill="none" stroke="#000000" d="M 64 320 L 264.419921875 320 L 264.419921875 440 L 64 440 L 64 320 Z Z" stroke-miterlimit="10"/></g><g transform="translate(-54,-46) scale(1,1)"><path fill="none" stroke="#000000" d="M 64 345 L 264.419921875 345" stroke-miterlimit="10"/></g><g transform="translate(-54,-46) scale(1,1)"><path fill="none" stroke="#000000" d="M 64 383 L 264.419921875 383" stroke-miterlimit="10"/></g><g transform="translate(-54,-46) scale(1,1)"><g><path fill="none" stroke="none"/><text fill="#000000" stroke="none" font-family="Arial" font-size="13px" font-style="normal" font-weight="bold" text-decoration="none" x="149.035888671875" y="339.5">Cash</text></g></g><g transform="translate(-54,-46) scale(1,1)"><g><path fill="none" stroke="none"/><text fill="#000000" stroke="none" font-family="Arial" font-size="13px" font-style="normal" font-weight="normal" text-decoration="none" x="69" y="362.5">+5bCash_num: int</text></g></g><g transform="translate(-54,-46) scale(1,1)"><g><path fill="none" stroke="none"/><text fill="#000000" stroke="none" font-family="Arial" font-size="13px" font-style="normal" font-weight="normal" text-decoration="none" x="69" y="377.5">+1bCash_num: int</text></g></g><g transform="translate(-54,-46) scale(1,1)"><g><path fill="none" stroke="none"/><text fill="#000000" stroke="none" font-family="Arial" font-size="13px" font-style="normal" font-weight="normal" text-decoration="none" x="69" y="400.5">+putMoney(): void</text></g></g><g transform="translate(-54,-46) scale(1,1)"><g><path fill="none" stroke="none"/><text fill="#000000" stroke="none" font-family="Arial" font-size="13px" font-style="normal" font-weight="normal" text-decoration="none" x="69" y="415.5">+outMoney(5bOut, 1bOut): void</text></g></g><g transform="translate(-54,-46) scale(1,1)"><g><path fill="none" stroke="none"/><text fill="#000000" stroke="none" font-family="Arial" font-size="13px" font-style="normal" font-weight="normal" text-decoration="none" x="69" y="430.5">+checkMoney(): boolean</text></g></g><g transform="translate(-54,-46) scale(1,1)"><rect fill="#C0C0C0" stroke="none" x="351" y="495" width="184" height="130" opacity="0.2"/></g><g transform="translate(-54,-46) scale(1,1)"><rect fill="#ffffff" stroke="none" x="344" y="488" width="184" height="130"/></g><g transform="translate(-54,-46) scale(1,1)"><path fill="none" stroke="#000000" d="M 344 488 L 528 488 L 528 618 L 344 618 L 344 488 Z Z" stroke-miterlimit="10"/></g><g transform="translate(-54,-46) scale(1,1)"><path fill="none" stroke="#000000" d="M 344 513 L 528 513" stroke-miterlimit="10"/></g><g transform="translate(-54,-46) scale(1,1)"><path fill="none" stroke="#000000" d="M 344 581 L 528 581" stroke-miterlimit="10"/></g><g transform="translate(-54,-46) scale(1,1)"><g><path fill="none" stroke="none"/><text fill="#000000" stroke="none" font-family="Arial" font-size="13px" font-style="normal" font-weight="bold" text-decoration="none" x="412.513671875" y="507.5">Account</text></g></g><g transform="translate(-54,-46) scale(1,1)"><g><path fill="none" stroke="none"/><text fill="#000000" stroke="none" font-family="Arial" font-size="13px" font-style="normal" font-weight="normal" text-decoration="none" x="349" y="530.5">+userNum: int</text></g></g><g transform="translate(-54,-46) scale(1,1)"><g><path fill="none" stroke="none"/><text fill="#000000" stroke="none" font-family="Arial" font-size="13px" font-style="normal" font-weight="normal" text-decoration="none" x="349" y="545.5">+accountNum: int</text></g></g><g transform="translate(-54,-46) scale(1,1)"><g><path fill="none" stroke="none"/><text fill="#000000" stroke="none" font-family="Arial" font-size="13px" font-style="normal" font-weight="normal" text-decoration="none" x="349" y="560.5">+password: int</text></g></g><g transform="translate(-54,-46) scale(1,1)"><g><path fill="none" stroke="none"/><text fill="#000000" stroke="none" font-family="Arial" font-size="13px" font-style="normal" font-weight="normal" text-decoration="none" x="349" y="575.5">+balance: int</text></g></g><g transform="translate(-54,-46) scale(1,1)"><g><path fill="none" stroke="none"/><text fill="#000000" stroke="none" font-family="Arial" font-size="13px" font-style="normal" font-weight="normal" text-decoration="none" x="349" y="598.5">+createUser(): void</text></g></g><g transform="translate(-54,-46) scale(1,1)"><g><path fill="none" stroke="none"/><text fill="#000000" stroke="none" font-family="Arial" font-size="13px" font-style="normal" font-weight="normal" text-decoration="none" x="349" y="613.5">+getBalance(): balance</text></g></g><g transform="translate(-54,-46) scale(1,1)"><rect fill="#C0C0C0" stroke="none" x="351" y="327" width="186.7724609375" height="128" opacity="0.2"/></g><g transform="translate(-54,-46) scale(1,1)"><rect fill="#ffffff" stroke="none" x="344" y="320" width="186.7724609375" height="128"/></g><g transform="translate(-54,-46) scale(1,1)"><path fill="none" stroke="#000000" d="M 344 320 L 530.7724609375 320 L 530.7724609375 448 L 344 448 L 344 320 Z Z" stroke-miterlimit="10"/></g><g transform="translate(-54,-46) scale(1,1)"><path fill="none" stroke="#000000" d="M 344 345 L 530.7724609375 345" stroke-miterlimit="10"/></g><g transform="translate(-54,-46) scale(1,1)"><path fill="none" stroke="#000000" d="M 344 368 L 530.7724609375 368" stroke-miterlimit="10"/></g><g transform="translate(-54,-46) scale(1,1)"><g><path fill="none" stroke="none"/><text fill="#000000" stroke="none" font-family="Arial" font-size="13px" font-style="normal" font-weight="bold" text-decoration="none" x="423.66259765625" y="339.5">User</text></g></g><g transform="translate(-54,-46) scale(1,1)"><g><path fill="none" stroke="none"/><text fill="#000000" stroke="none" font-family="Arial" font-size="13px" font-style="normal" font-weight="normal" text-decoration="none" x="349" y="362.5">+userDB: List&lt;Account&gt;</text></g></g><g transform="translate(-54,-46) scale(1,1)"><g><path fill="none" stroke="none"/><text fill="#000000" stroke="none" font-family="Arial" font-size="13px" font-style="normal" font-weight="normal" text-decoration="none" x="349" y="385.5">+checkAccount(): userNum</text></g></g><g transform="translate(-54,-46) scale(1,1)"><g><path fill="none" stroke="none"/><text fill="#000000" stroke="none" font-family="Arial" font-size="13px" font-style="normal" font-weight="normal" text-decoration="none" x="349" y="400.5">+getAccount(): List&lt;Account&gt;</text></g></g><g transform="translate(-54,-46) scale(1,1)"><g><path fill="none" stroke="none"/><text fill="#000000" stroke="none" font-family="Arial" font-size="13px" font-style="normal" font-weight="normal" text-decoration="none" x="349" y="415.5">+updateAccount(): void</text></g></g><g transform="translate(-54,-46) scale(1,1)"><rect fill="#C0C0C0" stroke="none" x="231" y="175" width="137.2607421875" height="132" opacity="0.2"/></g><g transform="translate(-54,-46) scale(1,1)"><rect fill="#ffffff" stroke="none" x="224" y="168" width="137.2607421875" height="132"/></g><g transform="translate(-54,-46) scale(1,1)"><path fill="none" stroke="#000000" d="M 224 168 L 361.2607421875 168 L 361.2607421875 300 L 224 300 L 224 168 Z Z" stroke-miterlimit="10"/></g><g transform="translate(-54,-46) scale(1,1)"><path fill="none" stroke="#000000" d="M 224 193 L 361.2607421875 193" stroke-miterlimit="10"/></g><g transform="translate(-54,-46) scale(1,1)"><path fill="none" stroke="#000000" d="M 224 203 L 361.2607421875 203" stroke-miterlimit="10"/></g><g transform="translate(-54,-46) scale(1,1)"><g><path fill="none" stroke="none"/><text fill="#000000" stroke="none" font-family="Arial" font-size="13px" font-style="normal" font-weight="bold" text-decoration="none" x="279.392333984375" y="187.5">ATM</text></g></g><g transform="translate(-54,-46) scale(1,1)"><g><path fill="none" stroke="none"/><text fill="#000000" stroke="none" font-family="Arial" font-size="13px" font-style="normal" font-weight="normal" text-decoration="none" x="229" y="220.5">+showMenu(): void</text></g></g><g transform="translate(-54,-46) scale(1,1)"><g><path fill="none" stroke="none"/><text fill="#000000" stroke="none" font-family="Arial" font-size="13px" font-style="normal" font-weight="normal" text-decoration="none" x="229" y="235.5">+login(): void</text></g></g><g transform="translate(-54,-46) scale(1,1)"><g><path fill="none" stroke="none"/><text fill="#000000" stroke="none" font-family="Arial" font-size="13px" font-style="normal" font-weight="normal" text-decoration="none" x="229" y="250.5">+logout(): void</text></g></g><g transform="translate(-54,-46) scale(1,1)"><g><path fill="none" stroke="none"/><text fill="#000000" stroke="none" font-family="Arial" font-size="13px" font-style="normal" font-weight="normal" text-decoration="none" x="229" y="265.5">+deposit(): void</text></g></g><g transform="translate(-54,-46) scale(1,1)"><g><path fill="none" stroke="none"/><text fill="#000000" stroke="none" font-family="Arial" font-size="13px" font-style="normal" font-weight="normal" text-decoration="none" x="229" y="280.5">+withdraw(): void</text></g></g><g transform="translate(-54,-46) scale(1,1)"><g><path fill="none" stroke="none"/><text fill="#000000" stroke="none" font-family="Arial" font-size="13px" font-style="normal" font-weight="normal" text-decoration="none" x="229" y="295.5">+checkBalance(): void</text></g></g><g transform="translate(-54,-46) scale(1,1)"><path fill="none" stroke="#000000" d="M 436 487 L 437 449" stroke-miterlimit="10"/></g><g transform="translate(-54,-46) scale(1,1)"><path fill="none" stroke="#000000" d="M 440.9407146667412 459.2698961978849 L 437 449 L 432.5245928199676 459.0484193071803" stroke-miterlimit="10"/></g><g transform="translate(-54,-46) scale(1,1)"><path fill="none" stroke="#000000" d="M 233 301 L 217 319" stroke-miterlimit="10"/></g><g transform="translate(-54,-46) scale(1,1)"><path fill="none" stroke="#000000" d="M 220.6054808831808 308.6076707326501 L 217 319 L 226.89794647920218 314.2009734846691" stroke-miterlimit="10"/></g><g transform="translate(-54,-46) scale(1,1)"><path fill="none" stroke="#000000" d="M 357 301 L 374 319" stroke-miterlimit="10"/></g><g transform="translate(-54,-46) scale(1,1)"><path fill="none" stroke="#000000" d="M 363.96169351038094 314.5019556671291 L 374 319 L 370.0824430594122 308.7212477597107" stroke-miterlimit="10"/></g><g transform="translate(-54,-46) scale(1,1)"><rect fill="#C0C0C0" stroke="none" x="191" y="63" width="50.919921875" height="44" opacity="0.2"/></g><g transform="translate(-54,-46) scale(1,1)"><rect fill="#ffffff" stroke="none" x="184" y="56" width="50.919921875" height="44"/></g><g transform="translate(-54,-46) scale(1,1)"><path fill="none" stroke="#000000" d="M 184 56 L 234.919921875 56 L 234.919921875 100 L 184 100 L 184 56 Z Z" stroke-miterlimit="10"/></g><g transform="translate(-54,-46) scale(1,1)"><path fill="none" stroke="#000000" d="M 184 81 L 234.919921875 81" stroke-miterlimit="10"/></g><g transform="translate(-54,-46) scale(1,1)"><path fill="none" stroke="#000000" d="M 184 91 L 234.919921875 91" stroke-miterlimit="10"/></g><g transform="translate(-54,-46) scale(1,1)"><g><path fill="none" stroke="none"/><text fill="#000000" stroke="none" font-family="Arial" font-size="13px" font-style="normal" font-weight="bold" text-decoration="none" x="195.257080078125" y="75.5">Time</text></g></g><g transform="translate(-54,-46) scale(1,1)"><path fill="none" stroke="#000000" d="M 221 101 L 256 167" stroke-miterlimit="10"/></g><g transform="translate(-54,-46) scale(1,1)"><path fill="none" stroke="#000000" d="M 247.51981069711545 159.99383204688593 L 256 167 L 254.95770950796356 156.0494917684059" stroke-miterlimit="10"/></g></g></svg>